<?xml version="1.0" encoding="utf-8"?>
<!-- Generator: Adobe Illustrator 15.0.2, SVG Export Plug-In  -->
<!DOCTYPE svg PUBLIC "-//W3C//DTD SVG 1.1//EN" "http://www.w3.org/Graphics/SVG/1.1/DTD/svg11.dtd" [
	<!ENTITY ns_flows "http://ns.adobe.com/Flows/1.0/">
]>
<svg version="1.1"
	 xmlns="http://www.w3.org/2000/svg" xmlns:xlink="http://www.w3.org/1999/xlink" xmlns:a="http://ns.adobe.com/AdobeSVGViewerExtensions/3.0/"
	 x="0px" y="0px" width="150px" height="150px" viewBox="-17.5 -39.062 150 150"
	 overflow="visible" enable-background="new -17.5 -39.062 150 150" xml:space="preserve">
<defs>
</defs>
<g>
	<g>
		<path fill="#58595B" d="M27.979,47.336c-0.496-3.444-2.158-23.354-2.843-28.094c-0.419-2.887-0.713-5.451-2.623-7.723
			c-5.432-6.532-7.745,15.723-9.127,15.569c-0.867-0.032-1.334-3.723-1.458-4.372c-0.327-1.547-0.979-6.44-4.984-5.592
			c-2.095,0.448-3.32,3.678-3.32,3.678s-0.326-1.22-1.057-1.1c-1.646-0.26-2.25-0.539-2.28,1.395
			c-0.031,2.716-0.869,33.619,0.478,36.601c0.546,1.236,2.533,3.15,3.559,1.159c0.636-1.222,0.404-3.045,0.326-4.355
			c-0.221-4.108-0.079-8.219-0.158-12.31c-0.106-5.359,0.358-10.258,1.508-15.461c0.201-0.925,0.791-4.062,2.065-4.062
			c0.824-0.015,0.979,2.254,1.071,2.841c1.534,9.716,1.459,19.337,1.253,29.237c-0.03,1.931,0.995,4.217,2.938,3.754
			c1.116-0.264,2.217-1.576,1.473-2.843c-0.852-1.451,2.625-40.31,5.494-39.567c3.198,0.818,2.937,24.757,3.248,30.13
			c0.093,1.746-0.467,10.181,2.792,9.747C29.839,55.504,28.227,49.528,27.979,47.336z M30.442,58.392
			c-2.59-1.002-5.445,1.098-3.768,4.143c0.776,1.402,2.7,1.095,3.305-0.234c0.372-0.834,0.775-1.683,0.963-2.61
			C31.051,59.09,31.207,58.841,30.442,58.392z M80.925,18.625c0.062-1.329-2.219-1.667-3.293-0.727
			c-1.224,1.066,0.561,22.549,0.809,25.299c0.232,2.53-2.933-0.312-4.174-1.792c-5.37-6.443-5.076-13.637-6.521-14.656
			c-4.128-2.951-2.885,3.752-2.575,6.361c0.31,2.655,2.575,8.694,0.062,10.502c-1.447,0.711-2.298-15.844-2.407-17.374
			c-0.063-0.896,0.109-2.256-0.324-3.057c-0.219-0.388-2.577-3.244-3.57-1.748c-0.082,0.125-1.786,3.011-2.267,4.694
			C50.842,9.574,37.09,2.066,35.647,1.078c-1.119-0.771-2.856-2.254-3.493,0.603c-0.918,4.046,6.364,3.784,18.161,19.37
			c1.362,1.773,2.686,5.031,2.574,7.395c-0.169,3.799-0.682,7.043-2.157,10.255c-0.649,1.391-4.795,8.217-5.681,8.941
			c-2.623,2.115-2.965-3.843-3.01-5.311c-0.079-2.581-0.483-12.263-0.36-14.316c0.173-3.182,0.438-7.399-0.31-10.486
			c-0.34-1.469-0.618-2.147-2.141-2.256c-1.04-0.077-1.956,0.773-2.064,1.776c-0.342,3.044,1.908,27.135,1.335,30.473
			c-0.36,2.083-2.235,2.887-2.731,5.048c-0.402,1.729-0.669,5.654,1.598,6.131c1.986,0.434,6.102-3.749,7.544-5.034
			c2.639-2.315,6.475-8.386,6.475-8.386s-0.598,8.953,2.9,8.355c2.815-0.48,4.332-3.042,5.371-5.791
			c0.515-1.298,1.384-4.462,1.384-4.462s-0.018,5.388,4.936,5.65c3.476,0.172,3.104-8.866,3.104-8.866s6.49,9.483,9.856,7.492
			C84.138,44.554,80.042,36.539,80.925,18.625z M55.529,46.424c-1.895-0.369,1.117-11.953,2.918-16.183
			C61.26,34.037,57.44,46.777,55.529,46.424z M82.538,21.621c0.031,3.798,2.577,26.194,3.694,28.339
			c1.025,1.993,3.371,0.852,3.338-0.203c0,0-3.245-28.12-4.269-30.067C84.649,18.425,82.507,18.192,82.538,21.621z M112.475,32.39
			c-2.109-2.329-5.474-3.41-8.376-4.352c-3.083-1-6.245-1.823-9.434-2.403c-0.365-0.067-0.729-0.142-1.087-0.226
			c-0.517-0.138-1.022-0.302-1.504-0.532c-0.059-0.037-0.116-0.074-0.17-0.115C91.9,24.757,91.9,24.751,91.9,24.745
			c0.004-0.045,0.011-0.09,0.017-0.133c0.04-0.112,0.084-0.22,0.133-0.324c0.169-0.261,0.361-0.503,0.571-0.739
			c0.676-0.649,1.445-1.2,2.245-1.7c1.494-0.886,3.084-1.642,4.745-2.166c1.201-0.335,2.426-0.544,3.669-0.603
			c0.913,0.002,1.809,0.09,2.698,0.281c0.663,0.186,1.301,0.434,1.916,0.748c0.367,0.219,0.72,0.461,1.062,0.726
			c0.788,0.618,1.989,0.406,2.575-0.376c0.613-0.82,0.405-1.949-0.382-2.566c-1.8-1.41-3.839-2.145-5.956-2.375
			c-3.977-0.434-8.224,0.902-11.658,2.882c-2.251,1.296-4.983,3.136-5.299,5.943c-0.368,3.294,3.052,4.342,5.616,4.855
			c0.767,0.156,1.549,0.248,2.31,0.427c4.021,0.996,8.229,1.986,11.902,3.942c0.519,0.305,1.013,0.644,1.462,1.04
			c0.205,0.217,0.395,0.447,0.564,0.694c0.114,0.214,0.212,0.432,0.295,0.657c0.074,0.312,0.119,0.622,0.143,0.938
			c-0.009,0.408-0.046,0.813-0.127,1.211c-0.111,0.364-0.254,0.714-0.426,1.054c-0.283,0.457-0.606,0.88-0.972,1.276
			c-0.614,0.598-1.297,1.12-2.022,1.579c-1.198,0.698-2.482,1.241-3.81,1.655c-1.454,0.412-2.953,0.666-4.464,0.728
			c-0.951,0.006-1.896-0.068-2.824-0.271c-0.477-0.132-0.94-0.302-1.381-0.523c-0.241-0.146-0.469-0.308-0.682-0.489
			c-0.134-0.146-0.257-0.3-0.37-0.461c-0.091-0.168-0.164-0.339-0.23-0.518c-0.058-0.251-0.098-0.508-0.115-0.76
			c0.011-0.377,0.053-0.749,0.129-1.114c0.101-0.334,0.227-0.657,0.382-0.967c0.204-0.328,0.434-0.632,0.689-0.922
			c0.359-0.34,0.746-0.643,1.159-0.912c0.604-0.34,1.237-0.611,1.894-0.824c0.815-0.216,1.644-0.349,2.483-0.394
			c0.6,0.004,1.19,0.053,1.776,0.172c0.285,0.083,0.564,0.188,0.833,0.316c0.046,0.027,0.09,0.059,0.137,0.088
			c-0.214,0.106-0.429,0.195-0.652,0.272c-0.55,0.14-1.107,0.223-1.671,0.274c-1.002,0.092-1.681,1.166-1.527,2.103
			c0.166,1.033,1.11,1.61,2.11,1.519c2.517-0.231,6.022-1.5,5.588-4.642c-0.382-2.754-3.831-3.729-6.169-3.749
			c-2.893-0.021-5.925,0.827-8.112,2.775c-2.017,1.786-3.168,4.616-2.586,7.297c0.853,3.94,5.02,5.371,8.65,5.375
			c4.188,0.004,8.499-1.247,11.887-3.728c1.545-1.127,2.887-2.651,3.582-4.442C114.652,37.39,114.289,34.39,112.475,32.39z"/>
	</g>
</g>
<path fill="#58595B" d="M63.767,60.096H62.56v1.656h1.217c0.611,0,0.979-0.312,0.979-0.813v-0.02
	C64.756,60.37,64.369,60.096,63.767,60.096z"/>
<polygon fill="#58595B" points="69.813,62.604 71.292,62.604 70.557,60.664 "/>
<path fill="#58595B" d="M91.133,50.967c-0.142,0.281-0.33,0.55-0.567,0.793c-0.692,0.702-1.703,1.122-2.704,1.122
	c-1.338,0-2.488-0.697-3.181-1.915H60.271c-1.124,2.04-2.848,3.99-5.669,4.474c-0.215,0.035-0.43,0.053-0.641,0.053
	c-0.979,0-1.867-0.389-2.563-1.124c-0.717-0.755-1.222-1.884-1.533-3.402h-0.171c-1.149,1.527-2.429,3.081-3.544,4.06
	c-0.182,0.162-0.422,0.387-0.703,0.646c-0.624,0.579-1.242,1.144-1.854,1.675v14.527H115V50.967H91.133z M60.085,61.87
	c0,1.98-1.384,3.451-3.75,3.451h-2.516v-6.862h2.554c2.346,0,3.712,1.411,3.712,3.392V61.87z M64.699,65.321l-1.328-2.078H62.56
	v2.078h-1.827v-6.862h3.119c1.009,0,1.706,0.274,2.148,0.735c0.386,0.401,0.585,0.921,0.585,1.598v0.02
	c0,1.059-0.537,1.755-1.357,2.117l1.573,2.393H64.699z M72.301,65.321l-0.472-1.235h-2.553l-0.472,1.235h-1.914l2.8-6.911h1.762
	l2.808,6.911H72.301z M81.49,65.37h-1.594l-1.318-3.951L77.25,65.37h-1.593l-2.204-6.911h1.93l1.15,3.97l1.272-3.99h1.574
	l1.271,3.99l1.148-3.97h1.895L81.49,65.37z M85.893,65.321h-1.827v-6.862h1.827V65.321z M93.088,65.321h-1.594l-2.825-3.765v3.765
	h-1.811v-6.862h1.706l2.715,3.627v-3.627h1.809V65.321z M100.201,64.39c-0.697,0.607-1.659,1.068-2.864,1.068
	c-2.056,0-3.582-1.47-3.582-3.549v-0.019c0-2.001,1.509-3.569,3.544-3.569c1.16,0,1.979,0.362,2.676,0.99l-1.073,1.353
	c-0.473-0.411-0.935-0.646-1.594-0.646c-0.951,0-1.688,0.823-1.688,1.873v0.019c0,1.117,0.745,1.912,1.791,1.912
	c0.453,0,0.793-0.099,1.057-0.284v-0.833h-1.29v-1.392h3.023V64.39z M106.203,63.203c0,1.402-1.063,2.235-2.667,2.235
	c-1.168,0-2.271-0.382-3.092-1.137l1.018-1.265c0.661,0.54,1.377,0.824,2.142,0.824c0.5,0,0.763-0.177,0.763-0.471V63.37
	c0-0.294-0.217-0.441-1.122-0.666c-1.404-0.334-2.487-0.745-2.487-2.147v-0.02c0-1.274,0.971-2.196,2.555-2.196
	c1.12,0,1.997,0.314,2.712,0.913l-0.914,1.343c-0.602-0.452-1.262-0.677-1.847-0.677c-0.442,0-0.659,0.186-0.659,0.439v0.021
	c0,0.314,0.226,0.451,1.149,0.667c1.509,0.344,2.45,0.853,2.45,2.138V63.203z"/>
<path fill="#58595B" d="M56.392,60.136h-0.745v3.499h0.745c1.103,0,1.828-0.627,1.828-1.735v-0.019
	C58.22,60.781,57.494,60.136,56.392,60.136z"/>
</svg>
