<?xml version="1.0" encoding="utf-8"?>
<!-- Generator: Adobe Illustrator 15.0.2, SVG Export Plug-In  -->
<!DOCTYPE svg PUBLIC "-//W3C//DTD SVG 1.1//EN" "http://www.w3.org/Graphics/SVG/1.1/DTD/svg11.dtd" [
	<!ENTITY ns_flows "http://ns.adobe.com/Flows/1.0/">
]>
<svg version="1.1"
	 xmlns="http://www.w3.org/2000/svg" xmlns:xlink="http://www.w3.org/1999/xlink" xmlns:a="http://ns.adobe.com/AdobeSVGViewerExtensions/3.0/"
	 x="0px" y="0px" width="200px" height="125px" viewBox="-0.086 0 200 125"
	 overflow="visible" enable-background="new -0.086 0 200 125" xml:space="preserve">
<defs>
</defs>
<g>
	<g>
		<path fill="#231F20" d="M48.659,82.323c-0.864-5.99-3.755-40.614-4.944-48.859c-0.728-5.021-1.239-9.479-4.562-13.43
			C29.707,8.673,25.684,47.378,23.28,47.111c-1.509-0.057-2.322-6.474-2.536-7.604c-0.569-2.688-1.701-11.2-8.668-9.723
			C8.433,30.563,6.3,36.177,6.3,36.177s-0.565-2.12-1.837-1.909c-2.862-0.454-3.913-0.94-3.966,2.422
			c-0.054,4.724-1.512,58.47,0.83,63.654c0.951,2.149,4.407,5.479,6.19,2.016c1.104-2.125,0.702-5.295,0.565-7.575
			c-0.383-7.144-0.136-14.293-0.274-21.406C7.625,64.057,8.433,55.54,10.431,46.49c0.35-1.609,1.375-7.064,3.592-7.064
			c1.435-0.026,1.702,3.919,1.863,4.941c2.668,16.896,2.537,33.629,2.181,50.848c-0.053,3.356,1.73,7.333,5.106,6.528
			c1.942-0.459,3.855-2.742,2.563-4.944c-1.483-2.524,4.563-70.103,9.554-68.813c5.562,1.424,5.107,43.055,5.648,52.4
			c0.162,3.036-0.812,17.706,4.855,16.951C51.894,96.528,49.09,86.136,48.659,82.323z M52.944,101.551
			c-4.504-1.742-9.472,1.908-6.553,7.204c1.351,2.438,4.696,1.903,5.747-0.407c0.647-1.451,1.349-2.927,1.675-4.54
			C54.002,102.766,54.274,102.331,52.944,101.551z M140.738,32.393c0.109-2.313-3.857-2.9-5.726-1.264
			c-2.129,1.854,0.975,39.214,1.406,43.997c0.403,4.4-5.102-0.542-7.26-3.117c-9.34-11.206-8.828-23.716-11.34-25.49
			c-7.18-5.132-5.017,6.526-4.479,11.064c0.539,4.618,4.479,15.119,0.108,18.263c-2.517,1.237-3.995-27.553-4.187-30.215
			c-0.11-1.557,0.191-3.922-0.563-5.316c-0.381-0.674-4.482-5.642-6.209-3.039c-0.144,0.217-3.107,5.236-3.942,8.164
			C88.42,16.65,64.505,3.593,61.995,1.875c-1.947-1.342-4.968-3.921-6.075,1.048c-1.595,7.036,11.068,6.582,31.585,33.686
			c2.37,3.085,4.671,8.751,4.478,12.862c-0.295,6.606-1.187,12.248-3.751,17.834c-1.129,2.417-8.34,14.29-9.88,15.55
			c-4.562,3.678-5.157-6.684-5.235-9.236c-0.138-4.488-0.841-21.326-0.625-24.899c0.3-5.532,0.76-12.866-0.539-18.236
			c-0.591-2.555-1.076-3.734-3.724-3.923c-1.809-0.134-3.402,1.345-3.59,3.09c-0.594,5.293,3.319,47.189,2.322,52.994
			c-0.626,3.623-3.888,5.021-4.751,8.779c-0.699,3.008-1.162,9.833,2.78,10.663c3.455,0.753,10.61-6.521,13.12-8.755
			c4.589-4.027,11.261-14.584,11.261-14.584s-1.042,15.57,5.044,14.531c4.896-0.836,7.533-5.291,9.34-10.071
			c0.896-2.258,2.407-7.761,2.407-7.761s-0.03,9.37,8.583,9.827c6.045,0.298,5.398-15.42,5.398-15.42s11.286,16.493,17.142,13.029
			C146.327,77.484,139.203,63.547,140.738,32.393z M96.572,80.736c-3.294-0.642,1.943-20.787,5.075-28.143
			C106.538,59.195,99.896,81.353,96.572,80.736z M143.545,37.601c0.054,6.606,4.482,45.556,6.424,49.287
			c1.783,3.466,5.863,1.48,5.807-0.354c0,0-5.645-48.904-7.424-52.291C147.217,32.043,143.49,31.638,143.545,37.601z M195.607,56.33
			c-3.668-4.05-9.52-5.931-14.566-7.567c-5.362-1.74-10.861-3.17-16.406-4.181c-0.635-0.116-1.267-0.245-1.891-0.392
			c-0.898-0.24-1.777-0.525-2.615-0.925c-0.103-0.065-0.201-0.13-0.296-0.201c-0.006-0.01-0.006-0.02-0.006-0.029
			c0.006-0.078,0.018-0.156,0.029-0.229c0.069-0.195,0.146-0.383,0.229-0.564c0.295-0.454,0.629-0.875,0.994-1.285
			c1.176-1.13,2.514-2.089,3.904-2.958c2.6-1.541,5.363-2.855,8.252-3.767c2.09-0.582,4.219-0.945,6.381-1.049
			c1.588,0.004,3.146,0.157,4.693,0.489c1.152,0.323,2.262,0.756,3.332,1.302c0.639,0.381,1.252,0.8,1.846,1.262
			c1.371,1.074,3.461,0.706,4.479-0.655c1.066-1.426,0.705-3.388-0.664-4.461c-3.129-2.453-6.676-3.729-10.357-4.13
			c-6.916-0.755-14.302,1.569-20.275,5.011c-3.914,2.254-8.667,5.454-9.215,10.336c-0.642,5.729,5.307,7.552,9.768,8.444
			c1.332,0.271,2.692,0.431,4.016,0.741c6.992,1.733,14.312,3.456,20.699,6.858c0.902,0.529,1.762,1.118,2.543,1.807
			c0.357,0.378,0.686,0.777,0.982,1.208c0.197,0.372,0.367,0.75,0.512,1.143c0.129,0.542,0.207,1.082,0.248,1.633
			c-0.016,0.709-0.08,1.413-0.221,2.104c-0.193,0.634-0.441,1.243-0.74,1.833c-0.492,0.794-1.055,1.53-1.689,2.219
			c-1.068,1.04-2.256,1.947-3.518,2.746c-2.084,1.216-4.317,2.159-6.625,2.88c-2.529,0.716-5.136,1.157-7.764,1.265
			c-1.653,0.01-3.299-0.119-4.912-0.472c-0.828-0.229-1.636-0.525-2.401-0.911c-0.42-0.255-0.814-0.535-1.186-0.851
			c-0.231-0.255-0.446-0.521-0.644-0.801c-0.157-0.292-0.285-0.59-0.4-0.901c-0.1-0.437-0.17-0.881-0.201-1.322
			c0.02-0.654,0.092-1.302,0.225-1.937c0.176-0.581,0.395-1.143,0.664-1.683c0.354-0.569,0.755-1.097,1.199-1.602
			c0.625-0.592,1.298-1.118,2.016-1.587c1.05-0.589,2.152-1.062,3.293-1.433c1.418-0.375,2.859-0.605,4.32-0.685
			c1.042,0.007,2.07,0.093,3.088,0.299c0.497,0.145,0.982,0.327,1.449,0.551c0.08,0.047,0.156,0.102,0.237,0.153
			c-0.372,0.186-0.745,0.339-1.134,0.475c-0.957,0.241-1.926,0.387-2.906,0.476c-1.742,0.16-2.922,2.028-2.656,3.656
			c0.289,1.797,1.932,2.802,3.67,2.642c4.378-0.403,10.475-2.607,9.719-8.073c-0.664-4.789-6.662-6.487-10.729-6.52
			c-5.031-0.037-10.305,1.439-14.109,4.826c-3.506,3.108-5.509,8.029-4.496,12.692c1.482,6.853,8.729,9.34,15.043,9.348
			c7.283,0.006,14.781-2.169,20.674-6.482c2.686-1.96,5.02-4.611,6.229-7.727C199.395,65.026,198.764,59.809,195.607,56.33z"/>
	</g>
</g>
<radialGradient id="SVGID_1_" cx="137.9072" cy="106.8203" r="45.7496" gradientTransform="matrix(1 0 0 1 0 0)" gradientUnits="userSpaceOnUse">
	<stop  offset="0" style="stop-color:#7ECCA9"/>
	<stop  offset="1" style="stop-color:#19787E"/>
</radialGradient>
<path fill="url(#SVGID_1_)" d="M158.491,88.638c-0.245,0.489-0.573,0.957-0.986,1.379c-1.203,1.221-2.961,1.952-4.703,1.952
	c-2.326,0-4.326-1.213-5.53-3.331H104.82c-1.955,3.549-4.953,6.94-9.859,7.78c-0.375,0.062-0.748,0.092-1.115,0.092
	c-1.702,0-3.247-0.676-4.458-1.954c-1.246-1.313-2.125-3.277-2.667-5.918h-0.297c-1.998,2.657-4.224,5.358-6.163,7.061
	c-0.316,0.282-0.735,0.673-1.222,1.124c-1.087,1.008-2.161,1.988-3.226,2.912V125H200V88.638H158.491z"/>
<path fill="#FFFFFF" d="M93.599,101.668h4.441c4.079,0,6.455,2.454,6.455,5.898v0.034c0,3.444-2.405,6.002-6.521,6.002h-4.375
	V101.668z M96.777,104.584v6.086h1.295c1.918,0,3.18-1.092,3.18-3.019v-0.032c0-1.912-1.262-3.035-3.18-3.035H96.777z"/>
<path fill="#FFFFFF" d="M105.621,101.668h5.426c1.754,0,2.967,0.477,3.736,1.278c0.671,0.699,1.018,1.602,1.018,2.778v0.034
	c0,1.842-0.935,3.053-2.361,3.683l2.736,4.161h-3.655l-2.311-3.615h-1.41v3.615h-3.179V101.668z M110.916,107.396
	c1.063,0,1.703-0.545,1.703-1.415v-0.034c0-0.954-0.673-1.432-1.721-1.432H108.8v2.881H110.916z"/>
<path fill="#FFFFFF" d="M121.201,101.582h3.063l4.883,12.021h-3.407l-0.82-2.149h-4.439l-0.82,2.149h-3.328L121.201,101.582z
	 M123.986,108.878l-1.278-3.376l-1.294,3.376H123.986z"/>
<path fill="#FFFFFF" d="M127.744,101.668h3.356l2,6.904l2.214-6.939h2.738l2.21,6.939l1.998-6.904h3.295l-3.833,12.02h-2.772
	l-2.292-6.872l-2.311,6.872h-2.77L127.744,101.668z"/>
<path fill="#FFFFFF" d="M146.201,101.668h3.178v11.935h-3.178V101.668z"/>
<path fill="#FFFFFF" d="M151.058,101.668h2.968l4.721,6.308v-6.308h3.146v11.935h-2.771l-4.914-6.548v6.548h-3.149V101.668z"/>
<path fill="#FFFFFF" d="M163.053,107.669v-0.033c0-3.479,2.623-6.208,6.163-6.208c2.017,0,3.44,0.631,4.653,1.723l-1.867,2.352
	c-0.821-0.715-1.624-1.124-2.771-1.124c-1.655,0-2.936,1.433-2.936,3.258v0.033c0,1.941,1.296,3.324,3.115,3.324
	c0.787,0,1.379-0.171,1.837-0.493v-1.45h-2.244v-2.42h5.26v5.352c-1.213,1.058-2.886,1.858-4.982,1.858
	C165.706,113.84,163.053,111.283,163.053,107.669z"/>
<path fill="#FFFFFF" d="M174.687,111.829l1.77-2.2c1.149,0.939,2.394,1.434,3.724,1.434c0.869,0,1.326-0.307,1.326-0.818v-0.035
	c0-0.511-0.377-0.768-1.951-1.159c-2.441-0.58-4.326-1.296-4.326-3.734v-0.034c0-2.216,1.689-3.818,4.443-3.818
	c1.949,0,3.473,0.546,4.717,1.587l-1.59,2.335c-1.047-0.785-2.193-1.176-3.212-1.176c-0.769,0-1.146,0.322-1.146,0.765v0.035
	c0,0.546,0.393,0.784,1.998,1.159c2.625,0.598,4.262,1.483,4.262,3.718v0.033c0,2.438-1.85,3.888-4.639,3.888
	C178.031,113.807,176.113,113.143,174.687,111.829z"/>
</svg>
